<svg xmlns="http://www.w3.org/2000/svg" xmlns:xlink="http://www.w3.org/1999/xlink" viewBox="0,0,256,256" width="64px" height="64px" fill-rule="none"><defs><linearGradient x1="32" y1="17.213" x2="32" y2="51.945" gradientUnits="userSpaceOnUse" id="color-1"><stop offset="0" stop-color="#e46dff" stop-opacity="0.18039"></stop><stop offset="1" stop-color="#ce88ec"></stop></linearGradient><linearGradient x1="32" y1="7" x2="32" y2="57.819" gradientUnits="userSpaceOnUse" id="color-2"><stop offset="0" stop-color="#bb4ef1"></stop><stop offset="1" stop-color="#c822ff"></stop></linearGradient></defs><g fill="none" fill-rule="none" stroke="none" stroke-width="1" stroke-linecap="butt" stroke-linejoin="miter" stroke-miterlimit="10" stroke-dasharray="" stroke-dashoffset="0" font-family="none" font-weight="none" font-size="none" text-anchor="none" style="mix-blend-mode: normal"><g transform="scale(4,4)"><path d="M31.669,51.74c0,-2.723 -1.723,-5.132 -4.287,-5.992c-6.053,-2.035 -10.02,-7.701 -9.869,-14.1c0.187,-7.933 6.549,-14.148 14.485,-14.148l0.152,0.001c7.907,0.08 14.341,6.584 14.341,14.499c0,0.742 -0.058,1.494 -0.171,2.237c-1.274,8.399 -9.498,14.514 -14.651,17.575z" fill="url(#color-1)" fill-rule="evenodd"></path><g fill="url(#color-2)" fill-rule="nonzero"><path d="M32,58c-1.149,0 -2.313,-0.077 -3.462,-0.229c-0.014,-0.002 -0.028,-0.004 -0.042,-0.007c-12.82,-1.73 -22.483,-12.798 -22.483,-25.764c0,-14.337 11.658,-26 25.987,-26c14.329,0 25.987,11.663 25.987,26c0,14.337 -11.658,26 -25.987,26zM31.994,13.5c0.065,0 0.131,0 0.196,0.001c10.091,0.102 18.301,8.4 18.301,18.499c0,0.943 -0.073,1.898 -0.217,2.84c-1.643,10.831 -12.26,18.06 -17.832,21.156c13.024,-0.237 23.545,-10.91 23.545,-23.996c0,-13.233 -10.76,-24 -23.987,-24c-13.227,0 -23.987,10.767 -23.987,24c0,11.597 8.372,21.549 19.656,23.608v-3.867c0,-1.003 -0.627,-1.888 -1.561,-2.201c-7.725,-2.598 -12.786,-9.825 -12.595,-17.985c0.24,-10.16 8.341,-18.055 18.481,-18.055zM31.995,15.5c-9.044,0 -16.269,7.04 -16.481,16.102c-0.171,7.279 4.343,13.727 11.231,16.042c1.749,0.588 2.924,2.234 2.924,4.098v3.448c4.266,-2.166 16.934,-9.479 18.629,-20.65c0.128,-0.843 0.193,-1.696 0.193,-2.539c0,-9.007 -7.321,-16.408 -16.32,-16.499c-0.059,-0.002 -0.117,-0.002 -0.176,-0.002z"></path></g></g></g></svg>