<svg width="117" height="116" fill="none" xmlns="http://www.w3.org/2000/svg"><path d="m100.044 0-6.34 5.438h6.34V0Z" fill="#005A94"/><path d="M43.222 25.375h29.95L100.042 0h-28.88a4 4 0 0 0-2.775 1.12L43.222 25.375Z" fill="#106CA6"/><path d="m16.713 0 6.34 5.438h-6.34V0Z" fill="#0A649E"/><path d="M78.728 38.907h-42.51V22.3a2 2 0 0 1 2-2h38.51a2 2 0 0 1 2 2v16.608Zm-37.68-4.833h32.85v-8.942h-32.85v8.942Z" fill="#F8B64C"/><path d="M73.173 25.375h-29.95L16.652 0h28.982a3 3 0 0 1 2.082.84l25.456 24.535Z" fill="url(#a)"/><path d="M58.653 112c-23.195 0-42-18.804-42-42s18.805-42 42-42c23.196 0 42 18.804 42 42s-18.804 42-42 42Z" fill="url(#b)"/><path d="M36.704 105.61c6.18 4.053 13.78 6.39 22 6.39 8.219 0 15.82-2.392 22-6.444V42.619c-6.18-4.052-13.781-6.444-22-6.444-8.22 0-15.82 2.392-22 6.444v62.991Z" fill="url(#c)"/><path d="M58.653 33c20.435 0 37 16.566 37 37s-16.565 37-37 37c-20.434 0-37-16.566-37-37s16.566-37 37-37Z" fill="url(#d)"/><g clip-path="url(#e)"><path d="M90.597 71.22a.158.158 0 0 0-.145-.028l-.156.046-.023.007c-.12.035-.222.065-.324.106-1.61.64-2.876 1.735-3.873 3.349a6.78 6.78 0 0 0-.59 1.226c.25-1.39.308-1.932.352-3.488.002-.065.002-.131.002-.197 0-.18 0-.35.04-.505.046-.184.141-.368.233-.545.026-.05.052-.1.073-.145a.105.105 0 0 1 .04-.024 2.39 2.39 0 0 0 1.245-.598 3.99 3.99 0 0 0 .93-1.221c.849-1.703 1.274-3.586 1.263-5.595-.001-.193-.024-.382-.049-.587a11.214 11.214 0 0 1-.032-.283.156.156 0 0 0-.238-.117 2.886 2.886 0 0 1-.075.046 1.444 1.444 0 0 0-.107.068 8.167 8.167 0 0 0-1.9 1.92 8.382 8.382 0 0 0-1.52 4.167l-.041-.514-.005-.062c-.054-.671-.11-1.365-.154-2.047-.012-.173-.045-.341-.077-.504-.062-.313-.12-.608-.027-.917.021-.07.04-.14.057-.211.045-.174.258-.442.587-.735l.012-.011c.121-.103.743-.672 1.096-1.798.358-1.144.331-2.339.312-3.211v-.024c-.027-1.2-.157-2.103-.421-2.931a5.58 5.58 0 0 0-.118-.32 18.283 18.283 0 0 1-.068-.178.155.155 0 0 0-.12-.1l-.026-.002a.155.155 0 0 0-.12.058l-.257.313c-1.232 1.501-1.837 3.263-1.799 5.235.007.347.033.703.079 1.071a30.497 30.497 0 0 0-1.098-3.143.227.227 0 0 1-.015-.072l-.003-.139a9.587 9.587 0 0 1 0-.609.312.312 0 0 1 .069-.153c.064-.086.136-.169.21-.255.126-.148.257-.3.36-.473.332-.557.489-1.215.491-2.072.005-1.008-.15-2.069-.49-3.339-.185-.693-.464-1.593-.984-2.409a2.41 2.41 0 0 0-.117-.161 2.787 2.787 0 0 1-.06-.078c-.029-.04-.07-.063-.135-.063a.157.157 0 0 0-.126.08c-.653 1.18-.978 2.439-.994 3.85-.013 1.178.171 2.191.401 2.992a29.781 29.781 0 0 0-1.945-3.09l-.016-.022c-.016-.021-.023-.032-.021-.024a18.575 18.575 0 0 1-.097-.794c0-.003.005-.022.038-.077.046-.08.098-.157.152-.24.109-.166.222-.337.294-.53.218-.58.267-1.237.149-2.01-.258-1.71-1.012-3.25-2.304-4.707a5.402 5.402 0 0 0-.435-.422l-.043-.04c-.061-.054-.124-.11-.187-.17a.156.156 0 0 0-.153-.036.158.158 0 0 0-.105.114l-.029.124c-.019.082-.034.147-.045.212-.174 1.038-.161 2.15.039 3.4.199 1.238.594 2.307 1.202 3.235a24.78 24.78 0 0 0-2.722-2.772.092.092 0 0 1-.011-.026c.072-.623-.081-1.21-.47-1.795-.51-.768-1.22-1.354-2.109-1.74-.532-.23-1.083-.435-1.622-.635-.259-.096-.517-.191-.783-.294-.268-.106-.382-.125-.444-.068-.08.075-.06.138-.026.254l.011.037c.326 1.099.76 1.968 1.324 2.656 1.036 1.266 2.248 1.909 3.703 1.966a.217.217 0 0 1 .108.03c.205.153.356.276.489.397.421.386.837.796 1.243 1.228-.604-.375-1.343-.544-2.174-.502-.456.023-.907.09-1.344.154l-.017.002c-.129.02-.257.038-.386.056-.28.038-.563.088-.813.132-.101.018-.343.073-.399.19a.133.133 0 0 0 .004.124c.02.035.04.068.064.097.721.936 1.544 1.553 2.516 1.885 1.184.407 2.272.373 3.25-.105a1.1 1.1 0 0 1 .535-.124c.156 0 .273.024.311.033.058.01.137.042.153.063a28.23 28.23 0 0 1 1.724 2.55c-.456-.443-1.05-.741-1.858-.936-.71-.169-1.434-.205-2.135-.24l-.234-.012c-.22-.011-.44-.025-.666-.04l-.38-.023a.155.155 0 0 0-.145.21c.016.042.044.115.058.14.739 1.235 1.607 2.09 2.653 2.613 1.022.511 1.946.646 2.878.423a1.57 1.57 0 0 1 .362-.04c.396 0 .672.121.73.233.513 1.058.97 2.157 1.365 3.278-.413-.57-.992-1.034-1.725-1.38-.728-.344-1.486-.658-2.232-.968-.32-.132-.642-.265-.962-.401a.155.155 0 0 0-.218.142c0 .1 1.063 3.052 2.608 4.216.63.474 1.406.962 2.385.985.293.006.595.047.824.308a.302.302 0 0 0 .132.09c.078.026.1.074.138.237.317 1.33.548 2.702.69 4.095a5.572 5.572 0 0 0-.15-.428c-.346-.877-.928-1.644-1.831-2.415-.466-.398-.953-.785-1.425-1.158l-.022-.018c-.215-.17-.43-.34-.643-.511a5.709 5.709 0 0 1-.137-.115l-.133-.114a.156.156 0 0 0-.256.13l.016.268.003.04c.01.176.02.342.038.506.168 1.596.642 2.929 1.452 4.074.5.708 1.22 1.573 2.34 1.983.273.1.47.251.682.523.2.255.237.488.233.78a32.303 32.303 0 0 1-.26 3.637 4.993 4.993 0 0 0-.23-1.028c-.243-.735-.622-1.45-1.157-2.184-.462-.636-.944-1.275-1.409-1.892l-.03-.041-.55-.73a.208.208 0 0 0-.11-.077.156.156 0 0 0-.216.092l-.005.017a.376.376 0 0 0-.017.062c-.321 1.913-.124 3.627.601 5.24.355.79.83 1.683 1.668 2.326.382.293.684.705.85 1.158.035.098.034.14.03.157a27.75 27.75 0 0 1-1.381 4.227 5.355 5.355 0 0 0-.03-2.218c-.235-1.09-.64-2.147-1-3.052l-.108-.27-.514-1.295a.16.16 0 0 0-.148-.099.153.153 0 0 0-.135.085l-.057.106c-.025.047-.048.09-.068.135-.725 1.636-.97 3.312-.727 4.983.173 1.195.466 2.05.952 2.774.25.374.49.79.532 1.303.01.121.006.205-.048.3a23.478 23.478 0 0 1-2.05 3.022.76.76 0 0 0 .01-.015c.54-.988.556-2.056.501-2.97-.048-.784-.137-1.567-.224-2.324l-.005-.044c-.035-.303-.07-.606-.1-.91a38.128 38.128 0 0 0-.06-.519l-.028-.236a.154.154 0 0 0-.084-.12c-.086-.045-.224.024-.373.2-1.025 1.213-1.661 2.583-1.891 4.073-.238 1.545-.11 2.867.395 4.042a.366.366 0 0 1 .013.117l-.027.676a.228.228 0 0 1-.05.124 18.107 18.107 0 0 1-3.361 2.556c.572-.517.984-1.193 1.25-2.048.296-.949.448-1.936.595-2.893l.013-.085c.052-.336.107-.672.162-1.015l.063-.388a.155.155 0 0 0-.057-.146.157.157 0 0 0-.157-.022l-.054.023a2.01 2.01 0 0 0-.157.07c-2.287 1.142-3.792 3.805-3.58 6.333.034.395-.002.767-.11 1.136a.158.158 0 0 1-.056.076 18.109 18.109 0 0 1-3.158 1.021.155.155 0 0 0-.084.253c.113.133.211.277.292.428a.161.161 0 0 0 .171.078c.847-.193 1.671-.443 2.451-.744a.296.296 0 0 1 .157-.03c.173.023.356.059.56.11.042.01.077.029.078.027.444.887 1.208 1.451 2.337 1.726.245.059.498.102.752.13.266.027.562.041.88.041.441 0 .756-.027.76-.027.978-.11 1.813-.33 2.553-.673.303-.14.649-.33.915-.669a.156.156 0 0 0-.02-.212c-.751-.663-1.516-1.145-2.339-1.473-1.219-.484-2.33-.616-3.418-.406a5.1 5.1 0 0 0-.475.117 19.469 19.469 0 0 0 2.913-2.139.156.156 0 0 1 .07-.034c.15-.025.35-.056.555-.07.019 0 .043.008.046.01.554.62 1.269.922 2.184.922.047 0 .094-.001.14-.003.996-.032 1.997-.305 2.975-.813.712-.371 1.453-.803 2.054-1.447.134-.143.253-.305.358-.448l.01-.014.142-.19a.157.157 0 0 0 .03-.121.16.16 0 0 0-.073-.107 5.14 5.14 0 0 0-.498-.233c-1.556-.601-3.128-.663-4.627-.18-.49.158-.952.395-1.402.722a24.436 24.436 0 0 0 2.3-3.167c.008-.012.028-.044.035-.05.06-.04.123-.076.186-.112.112-.066.227-.134.336-.215.092-.068.118-.07.21-.01.132.085.284.13.417.164.778.2 1.563.1 2.43-.307.793-.372 1.402-.96 1.942-1.538.787-.845 1.3-1.607 1.618-2.399.066-.166.114-.338.163-.518l.063-.225a.155.155 0 0 0-.096-.191l-.065-.005c-.321 0-3.182.047-4.855 1.67-.364.354-.69.729-.988 1.14a30.647 30.647 0 0 0 1.676-4.413l.006-.022a.305.305 0 0 1 .02-.055l.437-.6c.016-.025.018-.025.044-.025l.038.002.093.005c.326.02.518.018.676-.007.623-.098 1.185-.412 1.719-.96 1.248-1.28 2.107-2.877 2.626-4.882.056-.214.072-.431.088-.661.007-.104.016-.212.028-.323a.158.158 0 0 0-.056-.137Z" fill="url(#f)"/><path d="M48.246 94.53a18.123 18.123 0 0 1-3.156-1.022.16.16 0 0 1-.056-.075 3.054 3.054 0 0 1-.11-1.137c.212-2.527-1.293-5.19-3.58-6.333a2.106 2.106 0 0 0-.157-.07l-.054-.022a.155.155 0 0 0-.214.168l.062.388c.056.343.11.678.162 1.014l.014.088c.146.955.298 1.942.594 2.89.267.856.678 1.531 1.25 2.049a18.093 18.093 0 0 1-3.36-2.556.224.224 0 0 1-.05-.121l-.028-.677c0-.024 0-.088.014-.12.504-1.174.633-2.496.395-4.04-.23-1.49-.866-2.861-1.892-4.074-.12-.142-.225-.214-.314-.214a.124.124 0 0 0-.057.013.155.155 0 0 0-.085.121l-.028.236-.06.52a86.9 86.9 0 0 1-.1.91l-.005.043c-.087.757-.177 1.54-.224 2.323-.056.915-.04 1.983.501 2.97l.009.016a23.498 23.498 0 0 1-2.05-3.022c-.053-.095-.058-.179-.048-.3.044-.513.282-.93.533-1.303.485-.724.778-1.58.952-2.774.242-1.671-.003-3.347-.727-4.983-.02-.045-.044-.088-.068-.135l-.057-.107a.156.156 0 0 0-.283.014l-.515 1.295-.108.271c-.36.905-.764 1.961-.999 3.052a5.351 5.351 0 0 0-.03 2.218 27.715 27.715 0 0 1-1.382-4.227c-.004-.017-.005-.059.03-.157.166-.454.468-.865.851-1.159.838-.642 1.313-1.535 1.667-2.324.726-1.614.923-3.328.602-5.24a.408.408 0 0 0-.017-.063l-.005-.017a.157.157 0 0 0-.088-.095.162.162 0 0 0-.125.001.215.215 0 0 0-.112.076l-.55.732-.031.041c-.466.618-.947 1.257-1.41 1.893-.535.735-.913 1.449-1.156 2.184a5.008 5.008 0 0 0-.23 1.028 32.298 32.298 0 0 1-.26-3.637c-.005-.293.033-.525.233-.78.211-.272.41-.424.682-.524 1.12-.41 1.84-1.274 2.34-1.982.81-1.145 1.284-2.478 1.451-4.074.018-.164.028-.33.039-.506l.002-.04c.005-.086.01-.175.017-.27a.156.156 0 0 0-.085-.149.16.16 0 0 0-.17.02l-.134.115-.137.115-.643.511-.022.018c-.472.373-.96.76-1.425 1.158-.904.77-1.486 1.538-1.831 2.414a5.608 5.608 0 0 0-.15.43 31.51 31.51 0 0 1 .69-4.096c.038-.163.06-.211.139-.237a.3.3 0 0 0 .13-.09c.23-.26.532-.302.825-.308.979-.023 1.755-.511 2.385-.986 1.545-1.163 2.608-4.115 2.608-4.215a.156.156 0 0 0-.216-.143c-.322.137-.644.27-.977.407-.733.304-1.491.618-2.22.962-.732.347-1.31.81-1.725 1.38.395-1.12.852-2.22 1.364-3.275.06-.114.336-.235.732-.235.13 0 .254.014.362.04.932.223 1.856.088 2.878-.423 1.046-.523 1.914-1.378 2.653-2.615.014-.024.042-.097.057-.138a.155.155 0 0 0-.154-.21h-.001l-.37.023c-.226.014-.445.028-.665.04l-.235.011c-.7.036-1.425.072-2.134.24-.81.195-1.403.494-1.858.937a28.266 28.266 0 0 1 1.724-2.55c.016-.021.094-.054.159-.064.032-.008.149-.032.304-.032.206 0 .386.041.54.125.97.475 2.061.51 3.246.104.971-.332 1.794-.949 2.515-1.884a.754.754 0 0 0 .064-.098.132.132 0 0 0 .004-.124c-.056-.117-.297-.172-.399-.19-.25-.044-.532-.094-.813-.132a45.45 45.45 0 0 1-.386-.055l-.017-.003c-.436-.064-.888-.131-1.343-.154-.832-.043-1.57.127-2.175.503.407-.433.822-.843 1.243-1.229.134-.121.285-.244.49-.398a.218.218 0 0 1 .106-.029c1.456-.057 2.668-.7 3.705-1.965.564-.689.997-1.558 1.323-2.656l.011-.038c.035-.116.054-.18-.026-.253-.062-.058-.17-.041-.453.071-.257.099-.515.194-.78.293-.533.197-1.084.401-1.616.632-.888.386-1.598.972-2.109 1.74-.388.585-.542 1.172-.47 1.792a.12.12 0 0 1-.007.026 24.867 24.867 0 0 0-2.725 2.776c.607-.929 1.003-1.998 1.201-3.237.2-1.249.213-2.36.04-3.398a3.515 3.515 0 0 0-.046-.212l-.028-.125a.158.158 0 0 0-.107-.114.158.158 0 0 0-.152.036c-.063.06-.126.116-.186.171l-.043.039c-.156.14-.303.272-.436.422-1.292 1.458-2.045 2.997-2.304 4.707-.117.773-.069 1.43.15 2.01.072.193.184.365.296.535.052.078.103.156.15.236.035.058.038.073.038.07-.022.228-.052.483-.094.789a.309.309 0 0 1-.026.037l-.015.02a29.815 29.815 0 0 0-1.945 3.09c.23-.8.414-1.813.401-2.99-.015-1.413-.34-2.672-.994-3.851-.026-.046-.073-.076-.138-.08a.155.155 0 0 0-.124.063l-.058.078a2.198 2.198 0 0 0-.117.16c-.52.817-.8 1.717-.985 2.41-.339 1.27-.494 2.331-.49 3.339.003.856.159 1.515.492 2.072.103.173.233.325.364.478.07.08.141.164.206.25.045.059.067.119.068.153.009.203.004.41 0 .609l-.003.138a.223.223 0 0 1-.014.072 30.515 30.515 0 0 0-1.098 3.144c.046-.368.072-.724.078-1.072.038-1.972-.567-3.733-1.798-5.235l-.257-.313a.154.154 0 0 0-.12-.057l-.026.002a.155.155 0 0 0-.12.099l-.069.178c-.043.11-.083.215-.118.32-.264.828-.394 1.732-.42 2.932v.023c-.02.873-.047 2.068.311 3.212.353 1.125.975 1.694 1.096 1.797l.013.011c.328.293.542.561.586.735.018.07.036.141.057.21.094.31.035.606-.028.924-.031.161-.064.328-.076.498-.045.682-.1 1.376-.154 2.047l-.005.062-.041.514a8.38 8.38 0 0 0-1.52-4.166 8.167 8.167 0 0 0-1.9-1.92 1.497 1.497 0 0 0-.108-.07 2.323 2.323 0 0 1-.076-.045.156.156 0 0 0-.236.117c-.01.097-.021.191-.033.289-.024.2-.047.388-.048.582-.01 2.009.414 3.891 1.263 5.594.237.475.55.886.93 1.222.377.331.784.527 1.243.597.01.002.035.016.038.02.025.049.05.1.077.15.091.177.186.36.233.544.04.155.04.325.04.505 0 .066 0 .132.002.198.044 1.555.102 2.097.35 3.488a6.773 6.773 0 0 0-.588-1.227c-.997-1.614-2.264-2.71-3.873-3.349-.102-.04-.205-.07-.324-.105l-.024-.007-.154-.046a.156.156 0 0 0-.202.165c.012.11.02.218.028.323.017.23.032.446.088.66.519 2.006 1.378 3.603 2.626 4.883.534.547 1.096.861 1.72.96.157.024.349.027.674.007l.094-.006.038-.001c.026 0 .028 0 .046.026l.436.599c.005.007.013.036.019.055l.006.022a30.636 30.636 0 0 0 1.676 4.412 8.641 8.641 0 0 0-.988-1.14c-1.673-1.623-4.534-1.67-4.855-1.67h-.04l-.025.005a.155.155 0 0 0-.097.191c.023.075.043.15.067.239.046.166.094.338.16.504.317.792.831 1.554 1.617 2.4.541.578 1.15 1.166 1.942 1.537.868.407 1.652.507 2.43.307.133-.035.286-.079.417-.164.093-.06.119-.058.21.01.11.081.225.15.337.215.062.037.125.073.183.11.01.008.03.04.037.053.699 1.14 1.469 2.2 2.3 3.166a4.923 4.923 0 0 0-1.402-.721c-1.499-.483-3.07-.422-4.626.18-.233.09-.487.226-.504.236a.156.156 0 0 0-.038.224c.049.063.096.127.142.19l.01.014c.106.143.225.305.358.448.601.644 1.343 1.076 2.054 1.447.979.508 1.98.781 2.975.814l.14.002c.916 0 1.63-.302 2.181-.919a.111.111 0 0 1 .044-.014c.21.015.41.046.56.07a.158.158 0 0 1 .07.035c.921.815 1.896 1.53 2.914 2.139a5.21 5.21 0 0 0-.476-.117c-1.088-.21-2.199-.078-3.418.406-.822.328-1.588.81-2.339 1.473a.156.156 0 0 0-.02.212c.267.339.612.528.916.669.74.343 1.575.564 2.554.673.003 0 .317.027.758.027.319 0 .615-.014.88-.042a5.84 5.84 0 0 0 .753-.13c1.128-.274 1.892-.838 2.33-1.715a.231.231 0 0 1 .084-.038c.204-.05.387-.086.562-.11a.309.309 0 0 1 .156.031c.78.3 1.604.55 2.449.743a.155.155 0 0 0 .173-.078 2.5 2.5 0 0 1 .292-.428.155.155 0 0 0-.085-.251Z" fill="url(#g)"/></g><path d="M64.81 82.166V55.8h-6.257c-.05 1.088-.31 2.002-.784 2.747a5.402 5.402 0 0 1-1.81 1.78 7.906 7.906 0 0 1-2.482.947c-.915.188-1.855.271-2.824.248v5.454h6.222v15.19h7.936Z" fill="url(#h)"/><path d="M53.766 101.918h-4.113c.048-.398.19-.772.428-1.122.24-.352.689-.766 1.346-1.243.402-.293.659-.515.77-.666.113-.152.17-.296.17-.433a.492.492 0 0 0-.17-.375.579.579 0 0 0-.416-.159.597.597 0 0 0-.431.162c-.11.108-.184.298-.222.57l-1.374-.109c.054-.378.153-.672.297-.883.143-.214.345-.376.605-.489.263-.114.625-.171 1.087-.171.483 0 .858.054 1.125.162.269.107.48.273.632.498.155.222.233.471.233.748 0 .295-.089.576-.266.845-.175.268-.495.563-.96.884-.276.186-.46.317-.555.392-.092.075-.2.173-.326.294h2.14v1.095Z" fill="url(#i)"/><path d="M54.352 99.48c0-.919.168-1.562.505-1.93.339-.366.854-.55 1.545-.55.332 0 .604.04.817.122.214.08.387.184.522.313.135.128.24.263.316.406.08.14.142.306.189.495.092.36.138.736.138 1.128 0 .877-.151 1.519-.454 1.926-.303.407-.825.61-1.565.61-.416 0-.751-.065-1.007-.195a1.615 1.615 0 0 1-.63-.57c-.118-.178-.211-.421-.279-.729a5.007 5.007 0 0 1-.097-1.026Zm1.36.004c0 .615.055 1.036.165 1.263.112.224.273.336.484.336.14 0 .26-.047.36-.142.104-.096.179-.248.226-.455.05-.207.074-.529.074-.966 0-.642-.056-1.073-.168-1.293-.11-.222-.276-.333-.498-.333-.227 0-.39.113-.492.34-.1.224-.151.64-.151 1.25Z" fill="url(#j)"/><path d="M62.961 101.918H58.85c.047-.398.19-.772.427-1.122.24-.352.689-.766 1.346-1.243.402-.293.659-.515.77-.666.113-.152.17-.296.17-.433a.492.492 0 0 0-.17-.375.578.578 0 0 0-.416-.159.596.596 0 0 0-.431.162c-.11.108-.184.298-.222.57l-1.374-.109c.054-.378.153-.672.297-.883.143-.214.345-.376.605-.489.263-.114.625-.171 1.087-.171.483 0 .858.054 1.125.162.269.107.48.273.632.498.155.222.233.471.233.748 0 .295-.089.576-.266.845-.175.268-.495.563-.96.884a10.32 10.32 0 0 0-.555.392c-.092.075-.2.173-.326.294h2.14v1.095Z" fill="url(#k)"/><path d="M66.653 97v4.918h-1.386v-3.223a4.18 4.18 0 0 1-.653.406 5.073 5.073 0 0 1-.788.297v-1.102c.467-.147.83-.324 1.087-.53.258-.208.46-.463.606-.766h1.134Z" fill="url(#l)"/><defs><linearGradient id="a" x1="44.913" y1="0" x2="44.913" y2="25.375" gradientUnits="userSpaceOnUse"><stop stop-color="#117DC1"/><stop offset="1" stop-color="#1599EC"/></linearGradient><linearGradient id="b" x1="16.654" y1="70" x2="100.653" y2="70" gradientUnits="userSpaceOnUse"><stop stop-color="#FFDA45"/><stop offset="1" stop-color="#FFA425"/></linearGradient><linearGradient id="c" x1="57.55" y1="85.725" x2="57.384" y2="128.766" gradientUnits="userSpaceOnUse"><stop stop-color="#FFDA45"/><stop offset=".779" stop-color="#DF7A35"/></linearGradient><linearGradient id="d" x1="95.653" y1="70" x2="21.654" y2="70" gradientUnits="userSpaceOnUse"><stop stop-color="#FFDA45"/><stop offset="1" stop-color="#FFA425"/></linearGradient><linearGradient id="f" x1="62.579" y1="46.365" x2="94.027" y2="88.623" gradientUnits="userSpaceOnUse"><stop stop-color="#D68E21"/><stop offset="1" stop-color="#D89023"/></linearGradient><linearGradient id="g" x1="22.286" y1="53.244" x2="57.174" y2="98.942" gradientUnits="userSpaceOnUse"><stop stop-color="#B4761A"/><stop offset="1" stop-color="#EE9815"/></linearGradient><linearGradient id="h" x1="48.17" y1="55.437" x2="69.606" y2="84.417" gradientUnits="userSpaceOnUse"><stop stop-color="#AE7115"/><stop offset="1" stop-color="#F5990E"/></linearGradient><linearGradient id="i" x1="46.737" y1="94.441" x2="75.616" y2="99.28" gradientUnits="userSpaceOnUse"><stop stop-color="#AD6D0D"/><stop offset="1" stop-color="#D89023"/></linearGradient><linearGradient id="j" x1="46.737" y1="94.441" x2="75.616" y2="99.28" gradientUnits="userSpaceOnUse"><stop stop-color="#AD6D0D"/><stop offset="1" stop-color="#D89023"/></linearGradient><linearGradient id="k" x1="46.737" y1="94.441" x2="75.616" y2="99.28" gradientUnits="userSpaceOnUse"><stop stop-color="#AD6D0D"/><stop offset="1" stop-color="#D89023"/></linearGradient><linearGradient id="l" x1="46.737" y1="94.441" x2="75.616" y2="99.28" gradientUnits="userSpaceOnUse"><stop stop-color="#AD6D0D"/><stop offset="1" stop-color="#D89023"/></linearGradient><clipPath id="e"><path fill="#fff" transform="translate(26.653 38)" d="M0 0h64v64H0z"/></clipPath></defs></svg>